<svg width="178" height="43" viewBox="0 0 178 43" fill="none" xmlns="http://www.w3.org/2000/svg">
<path d="M39.038 12.266V20.924H49.406V24.038H39.038V35H35.186V9.152H51.206V12.266H39.038ZM62.1182 26.882C60.6902 26.93 59.4782 27.044 58.4822 27.224C57.4862 27.392 56.6762 27.62 56.0522 27.908C55.4282 28.196 54.9782 28.538 54.7022 28.934C54.4262 29.318 54.2882 29.75 54.2882 30.23C54.2882 30.686 54.3602 31.082 54.5042 31.418C54.6602 31.742 54.8642 32.012 55.1162 32.228C55.3802 32.432 55.6862 32.582 56.0342 32.678C56.3822 32.774 56.7602 32.822 57.1682 32.822C57.7082 32.822 58.2002 32.768 58.6442 32.66C59.1002 32.552 59.5262 32.402 59.9222 32.21C60.3182 32.006 60.6962 31.76 61.0562 31.472C61.4162 31.184 61.7702 30.854 62.1182 30.482V26.882ZM51.8222 19.268C52.8422 18.296 53.9462 17.57 55.1342 17.09C56.3342 16.61 57.6482 16.37 59.0762 16.37C60.1202 16.37 61.0442 16.544 61.8482 16.892C62.6522 17.228 63.3302 17.702 63.8822 18.314C64.4342 18.926 64.8482 19.658 65.1242 20.51C65.4122 21.362 65.5562 22.304 65.5562 23.336V35H63.9902C63.6422 35 63.3782 34.946 63.1982 34.838C63.0182 34.718 62.8742 34.502 62.7662 34.19L62.3882 32.588C61.9202 33.02 61.4582 33.404 61.0022 33.74C60.5462 34.064 60.0662 34.346 59.5622 34.586C59.0702 34.814 58.5422 34.988 57.9782 35.108C57.4142 35.228 56.7902 35.288 56.1062 35.288C55.3862 35.288 54.7082 35.192 54.0722 35C53.4482 34.796 52.9022 34.49 52.4342 34.082C51.9662 33.674 51.5942 33.164 51.3182 32.552C51.0542 31.94 50.9222 31.226 50.9222 30.41C50.9222 29.69 51.1142 29 51.4982 28.34C51.8942 27.668 52.5302 27.068 53.4062 26.54C54.2942 26.012 55.4462 25.58 56.8622 25.244C58.2902 24.908 60.0422 24.716 62.1182 24.668V23.336C62.1182 21.956 61.8242 20.924 61.2362 20.24C60.6482 19.556 59.7842 19.214 58.6442 19.214C57.8762 19.214 57.2282 19.31 56.7002 19.502C56.1842 19.694 55.7342 19.91 55.3502 20.15C54.9782 20.378 54.6482 20.588 54.3602 20.78C54.0842 20.972 53.7962 21.068 53.4962 21.068C53.2562 21.068 53.0462 21.002 52.8662 20.87C52.6982 20.738 52.5602 20.582 52.4522 20.402L51.8222 19.268ZM73.5671 20.222C74.1551 19.022 74.8631 18.08 75.6911 17.396C76.5191 16.712 77.5151 16.37 78.6791 16.37C79.0751 16.37 79.4471 16.418 79.7951 16.514C80.1551 16.598 80.4671 16.73 80.7311 16.91L80.4971 19.556C80.4131 19.88 80.2151 20.042 79.9031 20.042C79.7351 20.042 79.4831 20.012 79.1471 19.952C78.8111 19.88 78.4511 19.844 78.0671 19.844C77.5031 19.844 77.0051 19.928 76.5731 20.096C76.1411 20.252 75.7511 20.492 75.4031 20.816C75.0671 21.128 74.7671 21.518 74.5031 21.986C74.2391 22.442 73.9931 22.964 73.7651 23.552V35H70.2551V16.712H72.2711C72.6551 16.712 72.9131 16.784 73.0451 16.928C73.1891 17.06 73.2911 17.3 73.3511 17.648L73.5671 20.222ZM83.4387 35V16.712H85.5447C86.0367 16.712 86.3427 16.946 86.4627 17.414L86.7147 19.16C87.3867 18.356 88.1307 17.702 88.9467 17.198C89.7747 16.682 90.7407 16.424 91.8447 16.424C93.0567 16.424 94.0407 16.76 94.7967 17.432C95.5527 18.092 96.1047 18.992 96.4527 20.132C96.7167 19.484 97.0587 18.926 97.4787 18.458C97.8987 17.99 98.3667 17.606 98.8827 17.306C99.3987 17.006 99.9447 16.784 100.521 16.64C101.109 16.496 101.703 16.424 102.303 16.424C103.275 16.424 104.139 16.58 104.895 16.892C105.663 17.192 106.311 17.636 106.839 18.224C107.367 18.812 107.769 19.538 108.045 20.402C108.321 21.266 108.459 22.25 108.459 23.354V35H104.931V23.354C104.931 21.986 104.631 20.954 104.031 20.258C103.443 19.562 102.579 19.214 101.439 19.214C100.935 19.214 100.455 19.304 99.9987 19.484C99.5427 19.652 99.1407 19.91 98.7927 20.258C98.4567 20.606 98.1867 21.038 97.9827 21.554C97.7907 22.07 97.6947 22.67 97.6947 23.354V35H94.1667V23.354C94.1667 21.938 93.8847 20.894 93.3207 20.222C92.7567 19.55 91.9287 19.214 90.8367 19.214C90.0807 19.214 89.3787 19.412 88.7307 19.808C88.0827 20.204 87.4887 20.744 86.9487 21.428V35H83.4387ZM132.822 9.152L122.31 35H118.872L108.36 9.152H111.42C111.756 9.152 112.026 9.236 112.23 9.404C112.446 9.572 112.608 9.788 112.716 10.052L119.7 27.62C119.868 28.052 120.03 28.526 120.186 29.042C120.354 29.558 120.504 30.098 120.636 30.662C120.756 30.098 120.888 29.558 121.032 29.042C121.176 28.526 121.332 28.052 121.5 27.62L128.466 10.052C128.55 9.812 128.7 9.602 128.916 9.422C129.144 9.242 129.42 9.152 129.744 9.152H132.822ZM144.701 23.822C144.701 23.126 144.599 22.484 144.395 21.896C144.203 21.308 143.915 20.798 143.531 20.366C143.147 19.934 142.679 19.598 142.127 19.358C141.575 19.118 140.939 18.998 140.219 18.998C138.743 18.998 137.579 19.424 136.727 20.276C135.887 21.128 135.353 22.31 135.125 23.822H144.701ZM147.599 32.39C147.167 32.894 146.669 33.332 146.105 33.704C145.541 34.064 144.941 34.358 144.305 34.586C143.669 34.814 143.009 34.982 142.325 35.09C141.653 35.198 140.987 35.252 140.327 35.252C139.067 35.252 137.897 35.042 136.817 34.622C135.749 34.19 134.819 33.566 134.027 32.75C133.247 31.922 132.635 30.902 132.191 29.69C131.759 28.466 131.543 27.062 131.543 25.478C131.543 24.206 131.741 23.024 132.137 21.932C132.533 20.828 133.097 19.868 133.829 19.052C134.573 18.236 135.479 17.594 136.547 17.126C137.615 16.658 138.815 16.424 140.147 16.424C141.263 16.424 142.289 16.61 143.225 16.982C144.173 17.342 144.989 17.87 145.673 18.566C146.357 19.262 146.891 20.12 147.275 21.14C147.671 22.16 147.869 23.324 147.869 24.632C147.869 25.172 147.809 25.538 147.689 25.73C147.569 25.91 147.347 26 147.023 26H135.035C135.071 27.092 135.227 28.046 135.503 28.862C135.779 29.666 136.157 30.338 136.637 30.878C137.129 31.418 137.711 31.82 138.383 32.084C139.055 32.348 139.805 32.48 140.633 32.48C141.413 32.48 142.085 32.39 142.649 32.21C143.225 32.03 143.717 31.838 144.125 31.634C144.545 31.418 144.893 31.22 145.169 31.04C145.457 30.86 145.709 30.77 145.925 30.77C146.213 30.77 146.435 30.878 146.591 31.094L147.599 32.39ZM162.424 19.862C162.328 20.018 162.226 20.132 162.118 20.204C162.01 20.264 161.872 20.294 161.704 20.294C161.512 20.294 161.296 20.228 161.056 20.096C160.828 19.964 160.546 19.82 160.21 19.664C159.886 19.508 159.502 19.364 159.058 19.232C158.614 19.1 158.086 19.034 157.474 19.034C156.97 19.034 156.508 19.1 156.088 19.232C155.68 19.352 155.332 19.526 155.044 19.754C154.756 19.97 154.534 20.234 154.378 20.546C154.222 20.846 154.144 21.17 154.144 21.518C154.144 21.974 154.276 22.352 154.54 22.652C154.816 22.952 155.17 23.21 155.602 23.426C156.046 23.642 156.544 23.84 157.096 24.02C157.66 24.188 158.23 24.368 158.806 24.56C159.394 24.752 159.964 24.974 160.516 25.226C161.08 25.466 161.578 25.772 162.01 26.144C162.454 26.504 162.808 26.942 163.072 27.458C163.348 27.974 163.486 28.604 163.486 29.348C163.486 30.2 163.33 30.992 163.018 31.724C162.718 32.444 162.268 33.068 161.668 33.596C161.08 34.124 160.348 34.538 159.472 34.838C158.596 35.138 157.594 35.288 156.466 35.288C155.206 35.288 154.042 35.078 152.974 34.658C151.906 34.238 151.012 33.704 150.292 33.056L151.12 31.706C151.216 31.538 151.336 31.412 151.48 31.328C151.624 31.232 151.816 31.184 152.056 31.184C152.284 31.184 152.518 31.268 152.758 31.436C152.998 31.604 153.286 31.79 153.622 31.994C153.958 32.186 154.366 32.366 154.846 32.534C155.326 32.69 155.926 32.768 156.646 32.768C157.246 32.768 157.768 32.696 158.212 32.552C158.656 32.396 159.022 32.192 159.31 31.94C159.61 31.676 159.832 31.376 159.976 31.04C160.12 30.704 160.192 30.35 160.192 29.978C160.192 29.498 160.054 29.102 159.778 28.79C159.514 28.466 159.16 28.19 158.716 27.962C158.284 27.734 157.786 27.536 157.222 27.368C156.658 27.2 156.082 27.02 155.494 26.828C154.906 26.636 154.33 26.414 153.766 26.162C153.202 25.91 152.698 25.592 152.254 25.208C151.822 24.824 151.468 24.356 151.192 23.804C150.928 23.252 150.796 22.58 150.796 21.788C150.796 21.08 150.94 20.402 151.228 19.754C151.528 19.106 151.954 18.536 152.506 18.044C153.07 17.552 153.76 17.162 154.576 16.874C155.404 16.574 156.346 16.424 157.402 16.424C158.614 16.424 159.706 16.616 160.678 17C161.662 17.384 162.502 17.912 163.198 18.584L162.424 19.862ZM173.01 35.288C171.534 35.288 170.394 34.874 169.59 34.046C168.798 33.218 168.402 32.036 168.402 30.5V19.556H166.278C166.074 19.556 165.9 19.496 165.756 19.376C165.624 19.244 165.558 19.052 165.558 18.8V17.378L168.528 16.964L169.32 11.51C169.368 11.306 169.458 11.15 169.59 11.042C169.734 10.922 169.914 10.862 170.13 10.862H171.912V17H177.096V19.556H171.912V30.266C171.912 30.986 172.086 31.526 172.434 31.886C172.794 32.234 173.25 32.408 173.802 32.408C174.126 32.408 174.402 32.366 174.63 32.282C174.87 32.198 175.074 32.108 175.242 32.012C175.41 31.904 175.554 31.808 175.674 31.724C175.794 31.64 175.902 31.598 175.998 31.598C176.118 31.598 176.208 31.628 176.268 31.688C176.34 31.736 176.412 31.82 176.484 31.94L177.528 33.632C176.952 34.16 176.268 34.568 175.476 34.856C174.684 35.144 173.862 35.288 173.01 35.288Z" fill="white"/>
<line x1="2" y1="14" x2="2" y2="30" stroke="white" stroke-width="4" stroke-linecap="round"/>
<line x1="12" y1="16" x2="12" y2="28" stroke="white" stroke-width="4" stroke-linecap="round"/>
<line x1="22" y1="18" x2="22" y2="26" stroke="white" stroke-width="4" stroke-linecap="round"/>
</svg>
